<?xml version="1.0" encoding="UTF-8" standalone="no"?>
<!-- Created with Inkscape (http://www.inkscape.org/) -->

<svg
   xmlns:dc="http://purl.org/dc/elements/1.1/"
   xmlns:cc="http://creativecommons.org/ns#"
   xmlns:rdf="http://www.w3.org/1999/02/22-rdf-syntax-ns#"
   xmlns:svg="http://www.w3.org/2000/svg"
   xmlns="http://www.w3.org/2000/svg"
   xmlns:sodipodi="http://sodipodi.sourceforge.net/DTD/sodipodi-0.dtd"
   xmlns:inkscape="http://www.inkscape.org/namespaces/inkscape"
   width="172.65222"
   height="151.75801"
   viewBox="0 0 45.6809 40.152638"
   version="1.1"
   id="svg1133"
   inkscape:version="0.92.3 (2405546, 2018-03-11)"
   sodipodi:docname="optgroup-logo.svg">
  <defs
     id="defs1127">
    <clipPath
       clipPathUnits="userSpaceOnUse"
       id="clipPath254">
      <path
         d="m 434.074,693.373 h 121.99 v 106.353 h -121.99 z"
         id="path252"
         inkscape:connector-curvature="0" />
    </clipPath>
  </defs>
  <sodipodi:namedview
     id="base"
     pagecolor="#ffffff"
     bordercolor="#666666"
     borderopacity="1.0"
     inkscape:pageopacity="0.0"
     inkscape:pageshadow="2"
     inkscape:zoom="1.4"
     inkscape:cx="26.375068"
     inkscape:cy="84.450397"
     inkscape:document-units="mm"
     inkscape:current-layer="layer1"
     showgrid="false"
     fit-margin-left="5"
     fit-margin-top="5"
     fit-margin-right="5"
     fit-margin-bottom="5"
     units="px"
     inkscape:window-width="1920"
     inkscape:window-height="1016"
     inkscape:window-x="0"
     inkscape:window-y="27"
     inkscape:window-maximized="1" />
  <metadata
     id="metadata1130">
    <rdf:RDF>
      <cc:Work
         rdf:about="">
        <dc:format>image/svg+xml</dc:format>
        <dc:type
           rdf:resource="http://purl.org/dc/dcmitype/StillImage" />
        <dc:title></dc:title>
      </cc:Work>
    </rdf:RDF>
  </metadata>
  <g
     inkscape:label="Layer 1"
     inkscape:groupmode="layer"
     id="layer1"
     transform="translate(-85.260741,-134.80463)">
    <g
       transform="matrix(0.35277777,0,0,-0.35277777,-66.548,418.2531)"
       id="g248">
      <g
         id="g250"
         clip-path="url(#clipPath254)">
        <g
           id="g256"
           transform="translate(507.6808,725.609)">
          <path
             d="M 0,0 -1.045,1.219 2.104,3.918 4.574,1.036 C 4.522,0.477 4.302,-0.165 3.914,-0.891 3.527,-1.611 3.036,-2.227 2.44,-2.737 1.683,-3.386 0.888,-3.793 0.055,-3.959 c -0.836,-0.163 -1.648,-0.072 -2.436,0.275 -0.791,0.349 -1.483,0.871 -2.078,1.566 -0.646,0.753 -1.062,1.558 -1.248,2.414 -0.186,0.857 -0.109,1.702 0.232,2.536 0.258,0.638 0.732,1.253 1.423,1.845 0.899,0.77 1.762,1.182 2.589,1.235 0.828,0.059 1.6,-0.182 2.314,-0.722 L -0.367,3.675 C -0.774,3.943 -1.206,4.057 -1.664,4.019 -2.121,3.986 -2.56,3.79 -2.981,3.429 -3.62,2.882 -3.955,2.243 -3.986,1.514 c -0.028,-0.726 0.299,-1.487 0.981,-2.283 0.736,-0.859 1.48,-1.34 2.231,-1.444 0.748,-0.101 1.432,0.114 2.05,0.644 0.306,0.263 0.561,0.584 0.766,0.965 0.205,0.387 0.344,0.76 0.418,1.12 L 1.673,1.434 0,0 M 8.089,2.319 6.702,1.13 2.21,6.371 3.498,7.475 4.137,6.73 C 4.055,7.271 4.054,7.672 4.132,7.934 4.214,8.198 4.367,8.426 4.591,8.617 4.906,8.888 5.286,9.062 5.728,9.138 L 6.335,7.561 C 5.971,7.512 5.689,7.402 5.489,7.23 5.295,7.063 5.177,6.868 5.135,6.644 5.09,6.423 5.148,6.139 5.309,5.792 5.473,5.447 5.937,4.829 6.701,3.937 L 8.089,2.319 m 12.132,10.398 -0.672,0.785 c 0.049,-0.443 -0.014,-0.879 -0.189,-1.308 -0.171,-0.427 -0.429,-0.788 -0.774,-1.084 -0.353,-0.302 -0.735,-0.495 -1.147,-0.58 -0.412,-0.085 -0.8,-0.042 -1.165,0.131 -0.365,0.172 -0.759,0.506 -1.182,0.999 l -2.842,3.317 1.386,1.188 2.065,-2.408 c 0.631,-0.737 1.044,-1.168 1.237,-1.294 0.194,-0.119 0.4,-0.171 0.62,-0.154 0.216,0.02 0.428,0.119 0.636,0.297 0.237,0.203 0.394,0.449 0.471,0.738 0.075,0.293 0.065,0.564 -0.029,0.814 -0.098,0.253 -0.468,0.755 -1.111,1.505 l -1.895,2.211 1.387,1.189 4.492,-5.242 -1.288,-1.104 m -1.802,7.547 1.293,1.108 0.66,-0.77 c -0.058,0.407 -0.014,0.816 0.131,1.226 0.145,0.41 0.392,0.764 0.741,1.063 0.608,0.522 1.329,0.726 2.163,0.613 0.833,-0.114 1.615,-0.597 2.345,-1.449 0.751,-0.875 1.12,-1.739 1.11,-2.593 -0.013,-0.85 -0.324,-1.536 -0.933,-2.058 C 25.64,17.156 25.327,16.988 24.992,16.9 24.659,16.815 24.243,16.801 23.744,16.858 l 2.263,-2.64 -1.387,-1.189 -6.201,7.235 m 3.542,-1.356 c 0.504,-0.589 0.995,-0.925 1.471,-1.007 0.473,-0.08 0.878,0.024 1.213,0.312 0.323,0.276 0.481,0.635 0.475,1.074 -0.009,0.444 -0.266,0.96 -0.771,1.549 -0.471,0.549 -0.93,0.863 -1.379,0.94 -0.449,0.078 -0.836,-0.023 -1.162,-0.302 -0.339,-0.291 -0.508,-0.663 -0.506,-1.118 -0.001,-0.452 0.219,-0.934 0.659,-1.448"
             style="fill:#000000;fill-opacity:1;fill-rule:nonzero;stroke:none"
             id="path258"
             inkscape:connector-curvature="0" />
        </g>
        <g
           id="g260"
           transform="translate(521.9378,735.5374)">
          <path
             d="m 0,0 c -0.006,0.806 -0.254,1.542 -0.735,2.063 -0.002,0.002 -0.005,0.004 -0.007,0.006 0,10e-4 -0.001,0.002 -0.001,0.002 L -0.744,2.072 C -0.898,2.237 -1.077,2.38 -1.279,2.497 -1.873,2.84 -2.565,2.891 -3.249,2.704 -3.932,2.891 -4.623,2.84 -5.217,2.497 -5.42,2.38 -5.598,2.237 -5.753,2.071 -5.756,2.068 -5.759,2.065 -5.761,2.063 L -5.762,2.062 C -6.421,1.349 -6.641,0.233 -6.405,-0.915 -6.64,-2.063 -6.42,-3.178 -5.762,-3.89 c 0.003,-0.003 0.006,-0.007 0.008,-0.01 h 10e-4 c 0.155,-0.165 0.334,-0.309 0.536,-0.425 0.594,-0.344 1.285,-0.394 1.969,-0.207 0.683,-0.187 1.375,-0.137 1.969,0.207 0.203,0.116 0.381,0.26 0.536,0.426 0.002,0.003 0.005,0.006 0.008,0.009 0,0 0.001,0.001 0.001,0.001 0.481,0.521 0.728,1.271 0.734,2.061 0.002,0.302 -0.028,0.609 -0.091,0.917 C -0.028,-0.602 0.002,-0.296 0,0 M -0.846,-0.915 C -0.932,-1.289 -1.08,-1.67 -1.295,-2.042 -1.43,-2.276 -1.583,-2.491 -1.748,-2.683 v 0 c -0.441,-0.513 -0.97,-0.867 -1.5,-1.033 -0.529,0.166 -1.059,0.52 -1.5,1.033 -0.089,0.105 -0.319,0.408 -0.454,0.641 -0.214,0.372 -0.362,0.753 -0.448,1.127 0.086,0.374 0.234,0.757 0.449,1.129 0.135,0.234 0.288,0.448 0.453,0.64 0.003,0.003 0.005,0.006 0.008,0.01 0,0 0.014,0.014 0.034,0.039 0.433,0.487 0.945,0.824 1.459,0.985 0.526,-0.165 1.052,-0.516 1.491,-1.024 0.168,-0.194 0.323,-0.412 0.461,-0.65 0.214,-0.372 0.363,-0.755 0.449,-1.129"
             style="fill:#ed2024;fill-opacity:1;fill-rule:evenodd;stroke:none"
             id="path262"
             inkscape:connector-curvature="0" />
        </g>
        <g
           id="g264"
           transform="translate(521.9378,733.7838)">
          <path
             d="M 0,0 C -0.008,0.772 -0.227,1.575 -0.664,2.331 -0.842,2.64 -1.048,2.923 -1.272,3.175 L -1.274,3.173 c -0.122,0.139 -0.263,0.257 -0.424,0.35 -0.453,0.262 -1.002,0.29 -1.55,0.119 0.527,-0.166 1.053,-0.516 1.492,-1.024 0.168,-0.195 0.323,-0.412 0.461,-0.651 0.36,-0.623 0.533,-1.276 0.539,-1.872 0.007,-0.629 -0.173,-1.193 -0.519,-1.589 0,0 0.002,-0.002 0.002,-0.002 -0.571,-0.641 -1.268,-1.089 -1.975,-1.282 0.683,-0.187 1.375,-0.137 1.969,0.206 0.203,0.117 0.381,0.261 0.536,0.426 0.002,0.003 0.005,0.006 0.008,0.009 0,0 0.001,0.002 0.001,0.002 0.481,0.52 0.728,1.27 0.734,2.06 0,0.025 0,0.05 0,0.075 m -3.248,-1.962 c -0.526,0.165 -1.053,0.515 -1.492,1.024 -0.003,0.003 -0.005,0.006 -0.008,0.009 -0.09,0.105 -0.319,0.408 -0.454,0.641 -0.74,1.282 -0.692,2.69 -0.02,3.461 l -0.002,0.002 c 0.571,0.641 1.268,1.089 1.975,1.282 C -3.932,4.644 -4.623,4.594 -5.217,4.251 -5.42,4.134 -5.598,3.99 -5.753,3.825 -5.756,3.822 -5.759,3.819 -5.761,3.816 L -5.762,3.815 C -6.709,2.791 -6.75,0.936 -5.833,-0.653 c 0.179,-0.308 0.384,-0.591 0.609,-0.843 l 0.002,0.002 c 0.122,-0.139 0.263,-0.257 0.424,-0.35 0.453,-0.261 1.002,-0.29 1.55,-0.118"
             style="fill:#000000;fill-opacity:1;fill-rule:evenodd;stroke:none"
             id="path266"
             inkscape:connector-curvature="0" />
        </g>
        <g
           id="g268"
           transform="translate(480.1078,799.7555)">
          <path
             d="m 0,0 c -16.161,0.16 -33.565,-7.027 -41.385,-21.845 -5.225,-9.492 -5.775,-21.022 -2.871,-31.331 -4.395,-14.504 -0.62,-31.594 11.064,-41.644 12.98,-11.424 31.769,-13.439 48.168,-10.012 17.106,-3.601 37.005,-1.166 49.862,11.639 10.44,10.191 13.448,26.276 9.338,40.025 4.304,14.265 0.801,31.066 -10.52,41.152 C 50.649,-0.21 31.561,1.983 14.904,-1.496 10.005,-0.492 5.003,0.038 0,0 M 14.976,-13.848 C 35.145,-18.717 54.135,-33.009 60.824,-53.16 54.43,-72.564 36.486,-86.476 17.283,-91.911 c -6.841,-1.025 -13.52,3.321 -19.636,6.129 -12.854,7.121 -23.993,18.428 -28.551,32.63 6.626,20.123 25.772,34.468 45.88,39.304"
             style="fill:#ed2024;fill-opacity:1;fill-rule:evenodd;stroke:none"
             id="path270"
             inkscape:connector-curvature="0" />
        </g>
        <g
           id="g272"
           transform="translate(508.8118,799.7555)">
          <path
             d="m 0,0 c -20.177,-0.305 -40.131,-9.113 -54.35,-23.231 -7.378,-7.94 -8.597,-19.934 -5.258,-29.929 6.805,20.44 26.216,34.877 46.761,39.506 13.869,3.152 30.165,0.905 40.202,-9.859 8.329,-8.194 14.991,-18.328 18.117,-29.655 4.304,14.265 0.801,31.066 -10.52,41.152 C 25.58,-3.401 12.512,0.136 0,0 M 32.12,-53.16 C 25.752,-72.5 7.901,-86.377 -11.218,-91.854 c -14.116,-3.998 -31.21,-2.882 -42.213,7.669 -8.998,8.428 -16.225,19.041 -19.529,31.001 -4.302,-14.264 -0.773,-31.031 10.512,-41.136 14.523,-13.186 36.259,-14.359 54.362,-9.132 13.377,3.932 26.201,11.022 35.685,21.208 6.784,7.966 7.707,19.413 4.521,29.084"
             style="fill:#000000;fill-opacity:1;fill-rule:evenodd;stroke:none"
             id="path274"
             inkscape:connector-curvature="0" />
        </g>
        <g
           id="g276"
           transform="translate(453.3261,752.1293)">
          <path
             d="M 0,0 C 0.235,0.942 0.573,1.697 1.014,2.266 1.341,2.685 1.733,3.036 2.188,3.32 2.647,3.603 3.115,3.781 3.594,3.854 4.23,3.954 4.925,3.91 5.678,3.722 7.04,3.383 8.024,2.689 8.629,1.64 9.238,0.591 9.355,-0.687 8.979,-2.192 8.607,-3.685 7.91,-4.752 6.888,-5.395 5.867,-6.034 4.677,-6.184 3.319,-5.845 1.944,-5.502 0.955,-4.811 0.352,-3.772 -0.249,-2.729 -0.367,-1.472 0,0 M 1.939,-0.417 C 1.678,-1.464 1.722,-2.318 2.07,-2.981 2.42,-3.64 2.966,-4.062 3.711,-4.248 c 0.744,-0.185 1.42,-0.07 2.028,0.345 0.614,0.419 1.054,1.164 1.322,2.236 0.264,1.06 0.227,1.909 -0.109,2.546 C 6.619,1.516 6.068,1.93 5.299,2.122 4.529,2.314 3.843,2.204 3.24,1.791 2.638,1.383 2.205,0.647 1.939,-0.417 m 8.948,-0.033 1.653,-0.412 -0.245,-0.984 c 0.298,0.283 0.656,0.484 1.074,0.603 0.419,0.119 0.851,0.123 1.296,0.012 0.778,-0.194 1.362,-0.664 1.753,-1.409 0.39,-0.745 0.449,-1.662 0.178,-2.751 -0.279,-1.118 -0.769,-1.92 -1.471,-2.406 -0.701,-0.482 -1.44,-0.626 -2.218,-0.432 -0.37,0.092 -0.688,0.25 -0.954,0.472 -0.262,0.222 -0.514,0.553 -0.757,0.993 l -0.842,-3.374 -1.772,0.442 2.305,9.246 m 0.947,-3.673 c -0.188,-0.753 -0.177,-1.347 0.031,-1.783 0.21,-0.432 0.529,-0.701 0.958,-0.808 0.412,-0.103 0.795,-0.024 1.15,0.236 0.356,0.264 0.628,0.772 0.816,1.525 0.175,0.702 0.164,1.258 -0.033,1.669 -0.196,0.411 -0.503,0.668 -0.919,0.772 -0.433,0.108 -0.835,0.029 -1.204,-0.236 -0.369,-0.261 -0.635,-0.719 -0.799,-1.375 m 10.072,0.926 -0.353,-1.413 -1.211,0.302 -0.673,-2.7 c -0.136,-0.546 -0.205,-0.868 -0.207,-0.966 0.003,-0.095 0.037,-0.181 0.103,-0.26 0.069,-0.08 0.163,-0.135 0.28,-0.164 0.164,-0.041 0.416,-0.043 0.755,-0.007 l -0.191,-1.413 c -0.456,-0.074 -0.945,-0.046 -1.466,0.084 -0.32,0.08 -0.595,0.204 -0.825,0.373 -0.229,0.174 -0.384,0.359 -0.464,0.558 -0.074,0.202 -0.099,0.453 -0.073,0.755 0.014,0.216 0.099,0.637 0.255,1.263 l 0.728,2.92 -0.814,0.203 0.353,1.413 0.813,-0.203 0.332,1.331 2.036,0.591 -0.589,-2.366 1.211,-0.301 m 1.469,0.598 0.408,1.64 1.773,-0.442 -0.409,-1.64 -1.772,0.442 m -1.897,-7.606 1.67,6.698 1.772,-0.442 -1.67,-6.698 -1.772,0.442 m 5.12,5.838 1.634,-0.408 -0.229,-0.914 c 0.762,0.565 1.547,0.746 2.354,0.545 0.429,-0.107 0.779,-0.288 1.05,-0.543 0.271,-0.255 0.463,-0.587 0.576,-0.994 0.384,0.284 0.768,0.471 1.152,0.563 0.385,0.092 0.771,0.089 1.157,-0.007 0.492,-0.123 0.883,-0.327 1.174,-0.614 0.291,-0.283 0.472,-0.638 0.544,-1.067 0.051,-0.316 -0.003,-0.794 -0.163,-1.433 l -1.068,-4.283 -1.772,0.442 0.955,3.829 c 0.165,0.664 0.211,1.108 0.138,1.332 -0.102,0.293 -0.322,0.482 -0.663,0.567 -0.248,0.062 -0.5,0.044 -0.757,-0.053 -0.256,-0.096 -0.469,-0.28 -0.639,-0.55 -0.169,-0.266 -0.332,-0.714 -0.49,-1.345 l -0.802,-3.217 -1.772,0.442 0.915,3.671 c 0.163,0.651 0.236,1.08 0.22,1.285 -0.016,0.205 -0.079,0.37 -0.191,0.496 -0.107,0.125 -0.274,0.216 -0.501,0.273 -0.274,0.068 -0.538,0.056 -0.793,-0.037 -0.256,-0.093 -0.466,-0.266 -0.632,-0.519 -0.162,-0.255 -0.323,-0.703 -0.483,-1.347 l -0.812,-3.254 -1.772,0.442 1.67,6.698 m 11.837,-1.987 0.409,1.64 1.773,-0.442 -0.409,-1.64 -1.773,0.442 m -1.896,-7.606 1.67,6.698 1.772,-0.442 -1.67,-6.698 -1.772,0.442 m 2.87,-0.716 0.344,1.381 3.229,2.257 c 0.529,0.368 0.918,0.626 1.164,0.775 -0.209,0.038 -0.482,0.098 -0.819,0.177 l -2.369,0.577 0.367,1.47 5.537,-1.381 -0.313,-1.255 -3.296,-2.313 -1.146,-0.753 c 0.499,-0.093 0.808,-0.154 0.926,-0.184 l 2.743,-0.684 -0.388,-1.558 -5.979,1.491 m 9.656,2.537 -1.536,0.691 c 0.342,0.602 0.773,1.004 1.292,1.205 0.519,0.201 1.213,0.193 2.084,-0.024 0.79,-0.197 1.355,-0.438 1.695,-0.724 0.341,-0.282 0.553,-0.587 0.636,-0.916 0.088,-0.325 0.037,-0.873 -0.155,-1.642 l -0.535,-2.064 c -0.147,-0.589 -0.228,-1.031 -0.243,-1.326 -0.011,-0.293 0.022,-0.618 0.098,-0.976 l -1.753,0.437 c -0.017,0.129 -0.031,0.318 -0.04,0.566 -0.003,0.112 -0.007,0.187 -0.011,0.224 -0.376,-0.219 -0.755,-0.359 -1.137,-0.42 -0.381,-0.061 -0.767,-0.043 -1.158,0.054 -0.69,0.172 -1.188,0.495 -1.494,0.969 -0.302,0.473 -0.382,0.995 -0.239,1.567 0.094,0.378 0.269,0.692 0.523,0.941 0.255,0.254 0.564,0.418 0.926,0.493 0.368,0.078 0.874,0.099 1.517,0.064 0.867,-0.051 1.477,-0.049 1.83,0.006 l 0.044,0.176 c 0.085,0.341 0.061,0.603 -0.071,0.788 -0.132,0.189 -0.431,0.342 -0.897,0.459 -0.316,0.078 -0.577,0.076 -0.786,-0.006 -0.207,-0.078 -0.403,-0.259 -0.59,-0.542 m 2.013,-2.03 c -0.246,-0.019 -0.628,-0.019 -1.147,-0.002 -0.518,0.018 -0.865,-0.005 -1.042,-0.068 -0.272,-0.107 -0.439,-0.286 -0.502,-0.538 -0.062,-0.248 -0.023,-0.486 0.117,-0.713 0.14,-0.227 0.353,-0.376 0.639,-0.447 0.319,-0.08 0.65,-0.051 0.993,0.087 0.254,0.107 0.444,0.267 0.569,0.481 0.084,0.14 0.179,0.423 0.284,0.847 l 0.089,0.353 m 7.433,1.845 -0.352,-1.413 -1.211,0.302 -0.673,-2.699 c -0.136,-0.547 -0.206,-0.869 -0.208,-0.967 0.004,-0.094 0.038,-0.181 0.103,-0.26 0.069,-0.08 0.163,-0.134 0.281,-0.164 0.164,-0.041 0.415,-0.043 0.755,-0.007 l -0.192,-1.413 c -0.456,-0.074 -0.944,-0.046 -1.466,0.084 -0.319,0.08 -0.594,0.204 -0.825,0.374 -0.229,0.173 -0.383,0.359 -0.463,0.557 -0.075,0.202 -0.099,0.454 -0.073,0.755 0.013,0.216 0.098,0.637 0.254,1.263 l 0.728,2.92 -0.813,0.203 0.352,1.413 0.814,-0.203 0.331,1.331 2.037,0.591 -0.59,-2.365 1.211,-0.302 m 1.469,0.598 0.409,1.64 1.772,-0.442 -0.409,-1.64 -1.772,0.442 m -1.897,-7.606 1.67,6.698 1.773,-0.442 -1.67,-6.698 -1.773,0.442 m 17.228,-4.295 -1.772,0.442 0.852,3.418 c 0.18,0.723 0.259,1.199 0.236,1.428 -0.023,0.234 -0.105,0.431 -0.248,0.592 -0.139,0.159 -0.328,0.269 -0.568,0.329 -0.307,0.076 -0.603,0.061 -0.889,-0.047 -0.286,-0.107 -0.51,-0.288 -0.671,-0.542 -0.158,-0.256 -0.33,-0.758 -0.517,-1.506 l -0.756,-3.034 -1.772,0.442 1.67,6.698 1.646,-0.411 -0.245,-0.983 c 0.773,0.611 1.603,0.806 2.49,0.585 0.391,-0.098 0.731,-0.259 1.019,-0.482 0.289,-0.22 0.488,-0.459 0.598,-0.719 0.113,-0.26 0.167,-0.537 0.161,-0.83 -0.002,-0.295 -0.067,-0.7 -0.196,-1.218 l -1.038,-4.162"
             style="fill:#ed2024;fill-opacity:1;fill-rule:nonzero;stroke:none"
             id="path278"
             inkscape:connector-curvature="0" />
        </g>
      </g>
    </g>
  </g>
</svg>
